<svg xmlns="http://www.w3.org/2000/svg" width="46" height="45" viewBox="0 0 46 45" fill="none">
  <path fill-rule="evenodd" clip-rule="evenodd" d="M45.097 18.7355C45.4811 19.0625 45.6137 19.5921 45.4277 20.0613L43.89 23.9304C43.7468 24.2905 43.4321 24.5645 43.0524 24.6589L29.582 28.0095L31.145 29.3342L38.416 35.5008C38.7995 35.8275 38.9329 36.3582 38.7464 36.8253L37.2075 40.6975C37.0651 41.0569 36.7504 41.3309 36.3707 41.4253L23.6736 44.5836C23.2926 44.6783 22.8907 44.5853 22.5948 44.3349L1.00984 26.0808C0.815698 25.9171 0.686408 25.703 0.628509 25.4703C0.569974 25.2349 0.5852 24.9831 0.681356 24.7472L2.26049 20.8574C2.40622 20.4985 2.71572 20.233 3.09584 20.1385L16.5836 16.7836L15.0102 15.4578L7.76129 9.35035C7.37494 9.0253 7.24026 8.49125 7.42725 8.02223L8.96421 4.15732C9.10724 3.79685 9.42178 3.52385 9.8019 3.4293L22.4973 0.271471C22.8774 0.176921 23.2812 0.268519 23.5764 0.519556L45.097 18.7355Z" fill="#262952"/>
</svg>
