<svg xmlns="http://www.w3.org/2000/svg" width="198" height="53" viewBox="0 0 198 53" fill="none">
    <path d="M86.72 40.24C84.6133 40.24 82.6667 39.8933 80.88 39.2C79.0933 38.48 77.5467 37.48 76.24 36.2C74.9333 34.92 73.9067 33.4133 73.16 31.68C72.44 29.9467 72.08 28.0533 72.08 26C72.08 23.9467 72.44 22.0533 73.16 20.32C73.9067 18.5867 74.9333 17.08 76.24 15.8C77.5733 14.52 79.1333 13.5333 80.92 12.84C82.7067 12.12 84.6533 11.76 86.76 11.76C88.7867 11.76 90.6933 12.1067 92.48 12.8C94.2667 13.4667 95.7733 14.48 97 15.84L95.12 17.72C93.9733 16.5467 92.7067 15.7067 91.32 15.2C89.9333 14.6667 88.44 14.4 86.84 14.4C85.16 14.4 83.6 14.6933 82.16 15.28C80.72 15.84 79.4667 16.6533 78.4 17.72C77.3333 18.76 76.4933 19.9867 75.88 21.4C75.2933 22.7867 75 24.32 75 26C75 27.68 75.2933 29.2267 75.88 30.64C76.4933 32.0267 77.3333 33.2533 78.4 34.32C79.4667 35.36 80.72 36.1733 82.16 36.76C83.6 37.32 85.16 37.6 86.84 37.6C88.44 37.6 89.9333 37.3333 91.32 36.8C92.7067 36.2667 93.9733 35.4133 95.12 34.24L97 36.12C95.7733 37.48 94.2667 38.5067 92.48 39.2C90.6933 39.8933 88.7733 40.24 86.72 40.24ZM122.964 40.24C120.857 40.24 118.897 39.8933 117.084 39.2C115.297 38.48 113.737 37.48 112.404 36.2C111.097 34.8933 110.071 33.3867 109.324 31.68C108.604 29.9467 108.244 28.0533 108.244 26C108.244 23.9467 108.604 22.0667 109.324 20.36C110.071 18.6267 111.097 17.12 112.404 15.84C113.737 14.5333 115.297 13.5333 117.084 12.84C118.871 12.12 120.831 11.76 122.964 11.76C125.071 11.76 127.017 12.12 128.804 12.84C130.591 13.5333 132.137 14.52 133.444 15.8C134.777 17.08 135.804 18.5867 136.524 20.32C137.271 22.0533 137.644 23.9467 137.644 26C137.644 28.0533 137.271 29.9467 136.524 31.68C135.804 33.4133 134.777 34.92 133.444 36.2C132.137 37.48 130.591 38.48 128.804 39.2C127.017 39.8933 125.071 40.24 122.964 40.24ZM122.964 37.6C124.644 37.6 126.191 37.32 127.604 36.76C129.044 36.1733 130.284 35.36 131.324 34.32C132.391 33.2533 133.217 32.0267 133.804 30.64C134.391 29.2267 134.684 27.68 134.684 26C134.684 24.32 134.391 22.7867 133.804 21.4C133.217 19.9867 132.391 18.76 131.324 17.72C130.284 16.6533 129.044 15.84 127.604 15.28C126.191 14.6933 124.644 14.4 122.964 14.4C121.284 14.4 119.724 14.6933 118.284 15.28C116.844 15.84 115.591 16.6533 114.524 17.72C113.484 18.76 112.657 19.9867 112.044 21.4C111.457 22.7867 111.164 24.32 111.164 26C111.164 27.6533 111.457 29.1867 112.044 30.6C112.657 32.0133 113.484 33.2533 114.524 34.32C115.591 35.36 116.844 36.1733 118.284 36.76C119.724 37.32 121.284 37.6 122.964 37.6ZM150.431 30.4V27.92H160.911V30.4H150.431ZM173.105 40V37.96L192.545 13.44L192.865 14.56H173.385V12H195.585V14.04L176.185 38.56L175.825 37.44H196.065V40H173.105Z" fill="#262952"/>
    <path fill-rule="evenodd" clip-rule="evenodd" d="M49.097 22.7355C49.4811 23.0625 49.6137 23.5921 49.4277 24.0613L47.89 27.9304C47.7468 28.2905 47.4321 28.5645 47.0524 28.6589L33.582 32.0095L35.145 33.3342L42.416 39.5008C42.7995 39.8275 42.9329 40.3582 42.7464 40.8253L41.2075 44.6975C41.0651 45.0569 40.7504 45.3309 40.3707 45.4253L27.6736 48.5836C27.2926 48.6783 26.8907 48.5853 26.5948 48.3349L5.00984 30.0808C4.8157 29.9171 4.68641 29.703 4.62851 29.4703C4.56997 29.2349 4.5852 28.9831 4.68136 28.7472L6.26049 24.8574C6.40622 24.4985 6.71572 24.233 7.09584 24.1385L20.5836 20.7836L19.0102 19.4578L11.7613 13.3504C11.3749 13.0253 11.2403 12.4912 11.4273 12.0222L12.9642 8.15732C13.1072 7.79685 13.4218 7.52385 13.8019 7.4293L26.4973 4.27147C26.8774 4.17692 27.2812 4.26852 27.5764 4.51956L49.097 22.7355Z" fill="#262952"/>
</svg>
